<svg width="50" height="50" className='iconSVG' viewBox="0 0 50 50"  xmlns="http://www.w3.org/2000/svg">
<path d="M14.9707 1.80664C14.3555 2.07031 14.082 2.90039 14.4043 3.52539C14.4922 3.68164 15.2344 4.84375 16.0645 6.10352C17.2656 7.91992 17.666 8.44727 18.0176 8.69141C18.6426 9.12109 19.1602 9.27734 19.9805 9.27734H20.7031V10.0391C20.7031 11.0645 20.8984 11.6797 21.3672 12.1387C21.8457 12.6074 22.4512 12.793 23.457 12.793H24.2188V14.0137V15.2344H23.6914C22.9883 15.2344 21.1523 15.5566 20.0781 15.8691C16.3477 16.9531 12.4707 19.1211 8.31055 22.4512C6.44531 23.9355 6.34766 24.043 6.34766 24.502C6.34766 24.8047 6.40625 24.9316 6.60156 25.0879C7.08984 25.4688 7.22656 25.4102 8.59375 24.2578C13.75 19.9414 19.3262 17.1387 23.3691 16.8359L24.2188 16.7676V17.9004C24.2188 19.209 24.375 19.043 22.9492 19.2383C21.9336 19.375 20.3125 19.8926 19.3359 20.3809C15.8105 22.168 13.2324 25.6055 12.5488 29.4434C12.3438 30.5957 12.3438 32.7832 12.5488 33.9355C12.9883 36.377 14.1602 38.6523 15.9375 40.4883C17.7441 42.3535 19.9316 43.5547 22.5586 44.1113C23.7109 44.3555 26.2891 44.3555 27.4414 44.1113C31.9629 43.1543 35.5273 40.0195 36.9531 35.7422C37.4121 34.3652 37.5977 33.2227 37.5977 31.748C37.5977 28.3887 36.4648 25.4688 34.2285 23.0762C32.373 21.084 29.5801 19.5898 27.0508 19.2383C25.625 19.043 25.7812 19.209 25.7812 17.9102V16.7773L26.3477 16.8457C30.498 17.334 35.4785 19.7852 40.7715 23.9551C43.5059 26.1133 48.0859 30.4297 48.3301 31.084C48.4766 31.4746 48.4668 32.1875 48.3008 32.5C48.1445 32.793 44.9707 35.957 43.6523 37.1191C37.6758 42.4316 32.002 45.6641 27.0996 46.543C25.9375 46.748 23.7402 46.7773 22.6562 46.6016C18.0859 45.8398 13.2422 43.2129 7.71484 38.4863C6.19141 37.1875 2.08008 33.125 1.76758 32.6172C1.51367 32.1973 1.49414 31.4746 1.71875 30.9961C1.80664 30.8203 2.61719 29.9023 3.52539 28.9648C5.35156 27.0898 5.46875 26.8945 5.04883 26.416C4.86328 26.1914 4.72656 26.1328 4.43359 26.1328C4.08203 26.1328 3.98438 26.2207 2.34375 27.9102C1.30859 28.9746 0.507812 29.8828 0.332031 30.1953C0.0683594 30.6738 0.0488281 30.791 0.0488281 31.7383C0.0488281 33.2129 0.117188 33.3105 2.97852 36.1914C7.67578 40.9082 11.748 43.9746 16.1328 46.0938C19.3652 47.6465 21.8164 48.2715 24.707 48.2715C27.666 48.2715 30.2051 47.6172 33.6621 45.9473C38.3398 43.6914 43.2617 39.9707 48.1543 35C49.8438 33.2812 49.9512 33.0859 49.9512 31.7383C49.9512 30.8496 49.9219 30.6543 49.7168 30.2734C49.4531 29.7656 47.3242 27.5781 45.3613 25.791C38.6621 19.6973 32.3926 16.1523 26.9336 15.3613L25.7812 15.1953V13.9941V12.793H26.5234C27.4707 12.793 28.0176 12.6465 28.457 12.2852C29.0234 11.8262 29.209 11.3477 29.2676 10.2441L29.3262 9.29688L30.166 9.25781C31.1133 9.21875 31.6699 9.01367 32.2266 8.47656C32.5586 8.14453 35.0977 4.41406 35.5078 3.63281C35.791 3.10547 35.8008 2.79297 35.5664 2.35352C35.2344 1.73828 34.9414 1.66016 32.9785 1.66016H31.2305L30.9375 1.95312C30.6934 2.20703 30.6543 2.30469 30.7031 2.56836C30.8203 3.125 30.9277 3.17383 32.4707 3.22266L33.877 3.27148L32.6758 5.10742C32.0117 6.12305 31.3672 7.06055 31.2402 7.19727C30.7324 7.72461 30.9082 7.71484 25 7.71484C20.0488 7.71484 19.4824 7.69531 19.1602 7.54883C18.877 7.41211 18.5645 7.00195 17.4609 5.33203L16.1035 3.27148L22.2168 3.22266L28.3398 3.17383L28.5254 2.93945C28.8379 2.55859 28.7012 1.97266 28.252 1.76758C28.0859 1.68945 26.1133 1.66016 21.6504 1.66016C16.4062 1.66992 15.2246 1.68945 14.9707 1.80664ZM27.7344 10.0098C27.7344 10.6641 27.7051 10.7812 27.4902 10.9863L27.2559 11.2305H25H22.7441L22.5098 10.9863C22.2949 10.7812 22.2656 10.6641 22.2656 10.0098V9.27734H25H27.7344V10.0098ZM24.2188 22.7344V24.873L23.6621 24.9902C21.0156 25.5762 18.9746 27.5293 18.3594 30.0879C17.9785 31.709 18.1543 33.2324 18.9062 34.7656C19.7852 36.5234 21.5039 37.9004 23.3789 38.3301C24.2383 38.5352 25.752 38.5352 26.582 38.3398C28.9062 37.8027 30.7422 36.0742 31.5234 33.7109C31.7285 33.0859 31.7676 32.7637 31.7773 31.7871C31.7871 31.084 31.7383 30.4102 31.6504 30.0977C31.4551 29.3066 30.9082 28.9941 30.3906 29.3555C30.0391 29.5996 29.9805 29.873 30.1367 30.5762C30.3223 31.4453 30.3027 32.0703 30.0781 32.9492C29.1895 36.4551 25.1074 38.0664 22.1387 36.0938C20.6641 35.1172 19.7266 33.3789 19.7266 31.6602C19.7363 29.375 21.3379 27.3047 23.623 26.6211C23.916 26.5332 24.1699 26.4648 24.1895 26.4648C24.209 26.4648 24.2188 27.2266 24.2188 28.1543V29.8535L23.8574 30.0879C23.0859 30.5859 22.8027 31.7578 23.2422 32.6074C24.1211 34.3457 26.7676 33.8281 26.9336 31.8848C26.9922 31.2012 26.6211 30.3906 26.123 30.0781L25.7812 29.8633V28.1641V26.4648L26.0547 26.5234C26.6992 26.6797 27.4121 27.002 28.0078 27.4219C28.7305 27.9199 29.1504 27.9883 29.4922 27.6855C29.6289 27.5684 29.6875 27.3926 29.6875 27.1191C29.6875 26.7969 29.6289 26.6797 29.3262 26.3965C28.7988 25.918 27.3926 25.2441 26.5234 25.0488L25.7812 24.8828V22.7637V20.6445L26.4551 20.7227C28.0957 20.918 30.1758 21.7676 31.6016 22.8418C33.916 24.5605 35.5371 27.2656 35.9375 30.0684C36.1035 31.2012 36.0156 33.3203 35.752 34.3066C34.3945 39.4629 29.7656 42.9688 24.6094 42.7441C22.5488 42.6562 20.7129 42.0898 19.082 41.0254C13.2031 37.2266 12.1875 29.248 16.9238 24.1602C18.6133 22.3438 21.1523 21.0254 23.5352 20.7129C23.8867 20.6641 24.1797 20.625 24.1992 20.6152C24.209 20.6152 24.2188 21.5625 24.2188 22.7344Z" />
</svg>
