<svg width="50" height="50" className='iconSVG' viewBox="0 0 50 50"  xmlns="http://www.w3.org/2000/svg">
<path d="M23.4376 9.05296C19.5704 9.42405 16.5919 10.2444 13.1348 11.9143C8.64263 14.0823 3.9356 17.8225 0.605523 21.8459C0.0684136 22.51 -0.0487739 22.8616 0.0195855 23.633C0.0781793 24.2092 0.263726 24.4729 1.79693 26.1623C4.82427 29.4924 8.69146 32.4807 12.5098 34.4241C18.5938 37.5198 24.4239 38.3791 30.3614 37.051C31.5137 36.7873 33.8379 36.0744 34.629 35.7326L35.0782 35.5471L35.127 35.7522C35.2637 36.2795 35.9669 37.5198 36.4942 38.1936C37.461 39.4045 38.9649 40.3713 40.5274 40.7912C41.4063 41.0256 43.4669 41.0256 44.3262 40.7815C46.8946 40.0784 48.9161 38.135 49.7266 35.6057C50.0001 34.7463 50.0782 32.6076 49.8633 31.6994C49.5215 30.2444 48.8282 29.0139 47.7735 27.9494L47.1485 27.3244L47.5294 26.9045C47.7344 26.6701 48.3008 26.0354 48.7989 25.4885C49.2872 24.9416 49.7657 24.3459 49.8438 24.1701C50.0196 23.7991 50.0489 22.9885 49.8926 22.5881C49.6876 22.0412 47.4122 19.5608 45.6934 18.008C39.7754 12.6565 33.545 9.69749 26.9044 9.08225C25.8985 8.99436 24.2188 8.97483 23.4376 9.05296ZM27.1485 10.6936C33.2911 11.3479 39.1602 14.219 44.7461 19.3166C46.4161 20.8303 48.4376 23.0276 48.4376 23.3205C48.4376 23.5256 47.8809 24.1897 46.6993 25.4006L45.6934 26.4358L44.8633 26.1623C44.4044 26.0061 43.9454 25.8791 43.8477 25.8791C43.7403 25.8791 43.6524 25.8498 43.6524 25.8205C43.6524 25.7912 43.9551 25.4299 44.336 25.0198C45.8204 23.4084 45.6934 22.9299 43.1153 20.3616C39.2872 16.553 34.8145 13.8869 30.3223 12.7444C28.2129 12.1975 27.1387 12.0608 25.0001 12.0608C22.8907 12.0705 21.7774 12.2073 19.8047 12.7053C15.2149 13.8576 10.7032 16.553 6.78716 20.4592C4.2188 23.0178 4.15044 23.3791 5.89849 25.2932C8.71099 28.3791 12.6075 31.2014 16.1133 32.6955C21.4942 34.9905 26.4942 35.2541 31.7383 33.5061C32.5196 33.2424 33.5254 32.8616 33.9649 32.6662C34.4044 32.4612 34.7852 32.3147 34.795 32.3342C34.8145 32.3537 34.8047 32.7346 34.7852 33.1838L34.7461 33.9944L34.3848 34.1409C31.9532 35.1662 28.6915 35.9182 25.879 36.0842C22.6465 36.2795 18.3399 35.3811 14.7071 33.7405C10.7618 31.9534 7.23638 29.4241 3.75982 25.8694C2.15826 24.2287 1.56255 23.5451 1.56255 23.3205C1.56255 23.0276 3.56451 20.8498 5.24419 19.3166C10.8497 14.1897 16.8067 11.2991 23.0958 10.6545C24.336 10.5276 25.7227 10.5373 27.1485 10.6936ZM27.1973 13.8186C27.5684 13.9065 27.8907 13.9944 27.9102 14.0139C27.9297 14.0334 27.6172 14.1994 27.2169 14.385C26.8165 14.5705 26.2891 14.9026 26.0547 15.1076C25.6348 15.4983 25.6251 15.4983 24.6583 15.5569C23.5059 15.635 22.627 15.8303 22.3633 16.0647C22.2364 16.1819 22.168 16.3674 22.168 16.6213C22.168 17.2854 22.6465 17.5198 23.5352 17.2951C23.7208 17.2463 24.0333 17.178 24.2286 17.1487L24.5704 17.0901L24.4044 17.7444C23.6524 20.6252 25.4981 23.5744 28.3985 24.1311C29.0626 24.258 30.3419 24.1994 30.8106 24.0237C30.9571 23.9651 31.1036 23.9455 31.1329 23.9748C31.2598 24.1018 30.9278 25.3127 30.5567 26.0744C29.8145 27.5881 28.2911 28.8576 26.6114 29.3557C25.8106 29.5998 24.1895 29.5998 23.3887 29.3557C21.709 28.8576 20.1563 27.5588 19.4336 26.0647C18.9258 25.0002 18.711 24.0139 18.7794 22.9983C18.877 21.592 19.336 20.4592 20.3126 19.2385C20.879 18.5256 20.9376 18.1936 20.5469 17.803C20.1758 17.4319 19.6973 17.5393 19.209 18.0862C17.6368 19.8342 16.9336 22.217 17.295 24.5412C17.7344 27.344 19.7461 29.7658 22.4219 30.6838C26.9727 32.2561 31.8165 29.4338 32.6758 24.7073C32.7442 24.3069 32.8126 23.7307 32.8126 23.4377C32.8223 22.9397 32.8516 22.8713 33.2129 22.51C33.4278 22.2951 33.7794 21.7776 33.9844 21.3576L34.3653 20.5959L34.4629 20.967C34.834 22.3928 34.8438 24.1701 34.4727 25.6838C34.1993 26.8264 33.3692 28.4768 32.5684 29.4631C31.1036 31.2795 28.9356 32.5491 26.5723 32.9592C23.2227 33.5451 19.6094 32.1682 17.4317 29.4631C16.6309 28.4768 15.8106 26.8362 15.5079 25.635C15.1856 24.3752 15.1954 22.1877 15.5176 20.9963C16.5333 17.217 19.502 14.4338 23.2715 13.7112C24.1895 13.5354 26.2794 13.594 27.1973 13.8186ZM16.2598 16.1135C14.6485 18.1057 13.8282 20.2248 13.7012 22.7248C13.5547 25.7033 14.4825 28.4866 16.3379 30.6545C16.5919 30.9475 16.7774 31.2014 16.7579 31.2307C16.7383 31.2502 16.1036 30.9573 15.3516 30.5764C13.1251 29.4436 10.918 27.8908 8.86724 26.0061C7.91998 25.1467 6.34771 23.467 6.34771 23.3303C6.34771 23.1643 8.09576 21.3381 9.13091 20.4104C11.1915 18.5842 13.3399 17.0998 15.6251 15.9475C16.2891 15.6057 16.8458 15.3323 16.8653 15.3323C16.8751 15.3323 16.6114 15.6838 16.2598 16.1135ZM35.6153 16.6116C37.6075 17.7541 39.1211 18.8576 40.8985 20.4494C41.9825 21.4162 43.6524 23.1741 43.6524 23.3401C43.6524 23.4475 42.2559 24.9514 41.6602 25.4885C41.3868 25.7326 41.1231 25.8596 40.7227 25.9475C40.0196 26.0842 39.1309 26.4455 38.4083 26.8655C37.6075 27.344 36.3379 28.6233 35.8399 29.4729L35.42 30.1858L34.2383 30.7815L33.0567 31.3674L33.4278 30.9475C34.9317 29.1994 35.8399 27.2756 36.1915 25.0979C36.377 23.9846 36.3282 22.0217 36.084 20.8987C35.7129 19.219 34.9219 17.5881 33.7696 16.1526L33.1251 15.342L33.8379 15.6741C34.2286 15.8498 35.0294 16.2698 35.6153 16.6116ZM30.5665 15.6741C31.6309 16.0354 32.5879 17.1194 32.8809 18.2912C33.1641 19.4631 32.8419 20.5666 31.9239 21.5432C31.0352 22.4807 29.6778 22.8616 28.4571 22.5198C26.8067 22.051 25.6836 20.469 25.8106 18.8186C26.0059 16.4553 28.3497 14.9123 30.5665 15.6741ZM43.877 27.5002C45.5567 27.9299 47.0215 29.1213 47.8126 30.6838C48.2715 31.6018 48.4376 32.3049 48.4376 33.3987C48.4376 35.0881 47.9004 36.3869 46.6895 37.5979C45.8692 38.428 45.2149 38.8381 44.1895 39.1799C43.2325 39.4924 41.6602 39.5022 40.6739 39.1897C38.2715 38.428 36.5235 36.2405 36.3575 33.76C36.1719 30.9475 38.1544 28.2229 40.918 27.5002C41.6504 27.3049 43.1348 27.3049 43.877 27.5002Z" />
<path d="M44.0625 29.6879C43.8184 29.7953 43.1934 30.3227 42.5781 30.9184C41.5723 31.8949 41.4941 31.9535 41.3281 31.807C41.0352 31.5434 40.3027 31.2504 39.9023 31.2504C38.6426 31.2406 37.6953 32.1684 37.6953 33.4086C37.7051 34.2192 37.9395 34.6 39.2676 35.9086C40.5957 37.2074 40.9277 37.3832 41.7871 37.266C42.3047 37.1977 42.6074 37.0121 43.2617 36.3871C43.623 36.0453 43.75 35.85 43.75 35.6449C43.75 35.2348 43.6621 35.0688 43.3398 34.9027C42.9492 34.6977 42.5293 34.8442 42.041 35.352C41.8262 35.5668 41.5918 35.7426 41.5137 35.7426C41.4453 35.7426 40.8984 35.2738 40.3223 34.6977C39.1895 33.5942 39.082 33.3793 39.4531 33.0082C39.7656 32.6957 40.0098 32.7738 40.6152 33.35C41.0938 33.809 41.2305 33.8871 41.5527 33.8871C41.8945 33.8871 42.0117 33.7895 43.3496 32.4711C44.8535 30.9867 45.0391 30.8793 45.4102 31.2504C45.6934 31.5336 45.6543 31.6703 45.1172 32.2856C44.7559 32.6957 44.6289 32.9203 44.6289 33.1449C44.6289 33.7602 45.1562 34.1117 45.7129 33.8774C45.8691 33.8188 46.2109 33.4965 46.4746 33.1742C47.2656 32.2074 47.3535 31.309 46.748 30.4008C46.1621 29.5414 45.0391 29.2485 44.0625 29.6879Z" />
</svg>
