<svg width="50" height="50" viewBox="0 0 50 50"  xmlns="http://www.w3.org/2000/svg">
<g clip-path="url(#clip0_106_4057)">
<path d="M22.8711 2.86133L20.8008 4.93164L21.5332 5.66406L22.2656 6.39648L23.0957 5.56641L23.9258 4.73633V7.54883V10.3516H25H26.0742V7.54883V4.73633L26.9043 5.56641L27.7344 6.39648L28.4668 5.66406L29.1992 4.93164L27.1289 2.86133C25.9863 1.71875 25.0293 0.78125 25 0.78125C24.9707 0.78125 24.0137 1.71875 22.8711 2.86133Z" />
<path d="M4.49219 7.61719V10.5469H5.51758H6.5332L6.5625 9.4043L6.5918 8.26172L8.55469 10.1855C9.63867 11.2402 10.5664 12.1094 10.6152 12.1094C10.7227 12.1094 12.0117 10.8105 12.0117 10.6934C12.0215 10.6348 11.1328 9.72656 10.0391 8.67188L8.05664 6.73828H9.20898H10.3516V5.71289V4.6875H7.42188H4.49219V7.61719Z" />
<path d="M39.6485 5.71289V6.73828H40.8009L41.9434 6.74805L39.961 8.67188C38.8673 9.72656 37.9786 10.6445 37.9884 10.6934C37.9884 10.8203 39.2774 12.1094 39.3946 12.1094C39.4337 12.1094 40.3614 11.25 41.4454 10.1855L43.4083 8.27148L43.4376 9.4043L43.4669 10.5469H44.4825H45.5079V7.61719V4.6875H42.5782H39.6485V5.71289Z" />
<path d="M22.998 11.719C18.8184 12.0022 14.4238 13.301 10.9082 15.2932C7.99805 16.9436 5.36133 19.0823 3.32031 21.4651C2.26562 22.6858 0.78125 24.6975 0.78125 24.8928C0.78125 24.9612 1.09375 25.4494 1.47461 25.9963C7.24609 34.1311 16.709 38.6819 26.6211 38.0862C35.5762 37.5491 43.3887 33.2326 48.5254 25.9963C48.9062 25.4494 49.2188 24.9612 49.2188 24.9026C49.2188 24.8342 48.9648 24.4338 48.6621 24.0041C46.8066 21.3674 44.043 18.6135 41.4062 16.7776C39.1113 15.176 35.9961 13.6721 33.3887 12.8909C29.9707 11.8752 26.5039 11.4846 22.998 11.719ZM28.6914 14.0041C34.5801 14.9026 39.7852 17.5198 43.916 21.6604C44.9023 22.6565 46.6797 24.7366 46.6797 24.9026C46.6797 25.0881 44.8242 27.2658 43.8086 28.2717C39.3066 32.7444 33.75 35.3323 27.2949 35.9475C25.8301 36.0842 22.8027 36.0158 21.2891 35.7912C14.3555 34.8049 8.07617 31.1526 3.86719 25.6545L3.29102 24.9026L3.71094 24.3459C8.07617 18.5061 14.8535 14.678 22.2656 13.8772C23.4961 13.7405 27.4902 13.8186 28.6914 14.0041Z" />
<path d="M23.9258 16.2111C22.9102 16.3381 21.4551 16.8264 20.5566 17.3537C19.6289 17.8908 18.3398 19.1115 17.7246 20.0295C17.1777 20.8498 16.6504 22.09 16.4355 23.0764C16.2402 23.9846 16.2402 25.8107 16.4355 26.719C17.041 29.5315 19.1113 31.9729 21.7969 33.0373C23.7988 33.8381 26.4062 33.8088 28.4375 32.9494C30.3809 32.1389 32.2461 30.2736 33.0469 28.34C34.1406 25.7424 33.9062 22.6565 32.4512 20.3225C30.625 17.4025 27.3438 15.8205 23.9258 16.2111ZM26.9531 18.5549C28.7793 19.1701 30.1465 20.3518 30.957 22.0217C32.8027 25.8596 30.6934 30.2932 26.5234 31.3479C23.0078 32.2365 19.3164 29.9025 18.5156 26.299C17.9883 23.9162 18.8867 21.3576 20.8105 19.7561C21.4648 19.219 22.7344 18.594 23.5547 18.4084C24.4434 18.2033 26.123 18.2815 26.9531 18.5549Z" />
<path d="M24.1501 19.9217C22.4216 20.2342 20.8982 21.4549 20.322 22.9979C19.2478 25.869 20.7224 28.9061 23.5837 29.7459C24.404 29.9803 25.7322 29.9608 26.5622 29.6971C28.6521 29.0331 30.0095 27.1483 30.0193 24.9022C30.0193 22.6756 28.6521 20.7518 26.6013 20.117C25.8591 19.8924 24.8142 19.8045 24.1501 19.9217ZM26.3572 22.3143C26.9333 22.6268 27.3337 23.0467 27.656 23.662C27.8415 23.994 27.8806 24.2284 27.8806 24.9022C27.8806 25.576 27.8415 25.8104 27.656 26.1424C27.3337 26.7577 26.9333 27.1776 26.3474 27.4999C25.8884 27.7538 25.7419 27.7831 24.9997 27.7831C24.0915 27.7831 23.6618 27.6268 23.0173 27.0604C22.2751 26.4061 21.8943 25.1268 22.1579 24.1502C22.3923 23.2713 23.2907 22.3436 24.1599 22.0702C24.3259 22.0213 24.7751 21.992 25.156 22.0116C25.6931 22.0311 25.9568 22.0995 26.3572 22.3143Z" />
<path d="M8.54492 39.8145L6.5918 41.7383L6.5625 40.5957L6.5332 39.4531H5.51758H4.49219V42.3828V45.3125H7.42188H10.3516V44.2871V43.2617H9.20898L8.05664 43.252L10.0391 41.3281C11.1328 40.2734 12.0215 39.3555 12.0117 39.3066C12.0117 39.1699 10.7129 37.8906 10.5957 37.8906C10.5371 37.9004 9.61914 38.7598 8.54492 39.8145Z" />
<path d="M38.6427 38.5547C38.2813 38.916 37.9884 39.2578 37.9884 39.3066C37.9786 39.3652 38.8673 40.2734 39.961 41.3281L41.9434 43.252L40.8009 43.2617H39.6485V44.2871V45.3125H42.5782H45.5079V42.3828V39.4531H44.4825H43.4669L43.4376 40.5957L43.4083 41.7285L41.4454 39.8145C40.3614 38.75 39.4337 37.8906 39.3848 37.8906C39.336 37.8906 39.004 38.1836 38.6427 38.5547Z" />
<path d="M23.9258 42.4512V45.2637L23.0957 44.4336L22.2656 43.6035L21.5332 44.3359L20.8008 45.0684L22.9004 47.168L25 49.2676L27.0996 47.168L29.1992 45.0684L28.4668 44.3359L27.7344 43.6035L26.9043 44.4336L26.0742 45.2637V42.4512V39.6484H25H23.9258V42.4512Z" />
</g>
<defs>
<clipPath id="clip0_106_4057">
<rect width="50" height="50" fill="white"/>
</clipPath>
</defs>
</svg>
