<svg width="50" height="50" className='iconSVG' viewBox="0 0 50 50"  xmlns="http://www.w3.org/2000/svg">
<path d="M22.412 4.93164C17.6366 5.45899 12.7635 7.4707 7.97836 10.8887C7.26547 11.3965 6.85531 11.7578 6.79672 11.9336C6.62094 12.4316 7.05062 12.9883 7.60726 12.9883C7.71469 12.9883 8.04672 12.8027 8.35922 12.5684C14.9998 7.68555 21.826 5.625 28.1737 6.5918C32.617 7.26563 37.1873 9.28711 41.6405 12.5684C41.953 12.8027 42.285 12.9883 42.3924 12.9883C42.9491 12.9883 43.3787 12.4316 43.203 11.9336C43.1444 11.7578 42.7342 11.3965 42.0213 10.8887C35.5077 6.23047 28.8963 4.22852 22.412 4.93164Z" />
<path d="M22.9494 8.79885C18.0764 9.2969 12.803 11.7969 7.66625 16.0547C5.14672 18.1446 0.703356 22.8125 0.185778 23.916C0.0197626 24.2774 -0.0095343 24.4922 0.0197626 25.0879C0.0392938 25.5176 0.127184 25.9766 0.224841 26.1719C0.644763 27.0215 4.0432 30.7031 6.30883 32.7539C8.12523 34.4043 10.3518 36.1035 12.2366 37.2656C14.1506 38.4571 17.51 40.0391 18.1155 40.0391C18.4573 40.0391 18.8479 39.6289 18.8479 39.2871C18.8479 38.8672 18.6135 38.6133 18.0373 38.3985C16.0842 37.6563 14.1994 36.6602 12.0412 35.2246L10.5471 34.2285L11.0354 33.7403C11.7092 33.0567 11.7385 32.9395 11.5139 31.6797C11.26 30.2246 11.2502 30.1953 11.0354 29.9805C10.7815 29.7266 10.3518 29.7363 10.0198 29.9903C9.71703 30.2344 9.6975 30.5469 9.92211 31.6895L10.0686 32.4707L9.65843 32.8321L9.25804 33.2031L8.55492 32.6172C8.17406 32.2949 7.53929 31.7383 7.1389 31.377L6.42601 30.7129L6.96312 30.3223C7.75414 29.7559 7.92015 29.2969 7.47093 28.8574C7.09984 28.4766 6.71898 28.5352 5.9475 29.0918L5.2932 29.5703L4.47289 28.7305C3.54515 27.7637 2.55883 26.6504 1.97289 25.8985C1.39672 25.1563 1.40648 24.834 2.05101 23.9942L2.54906 23.3594L3.39867 23.5449C4.6975 23.8379 4.6682 23.8086 5.31273 24.7559C5.93773 25.6738 6.2014 25.8594 6.67015 25.7422C6.92406 25.6836 7.22679 25.2539 7.22679 24.9707C7.22679 24.9024 7.06078 24.5606 6.84593 24.2188L6.46508 23.584L7.02172 23.418C7.32445 23.3203 7.73461 23.1934 7.92992 23.1446C8.82836 22.8906 8.7307 21.5723 7.81273 21.5821C7.67601 21.5821 7.03148 21.7578 6.36742 21.9629L5.17601 22.334L4.49242 22.1875C4.11156 22.0996 3.80883 22.0117 3.80883 21.9727C3.80883 21.8848 7.28539 18.4766 7.92992 17.9297L8.49632 17.461L9.0725 17.8321L9.64867 18.2031L9.71703 19.0625C9.79515 20.0586 9.93187 20.293 10.469 20.3711C10.7619 20.4199 10.8694 20.3906 11.0744 20.1856C11.2502 20.0098 11.3284 19.8242 11.3284 19.6094C11.3284 19.1406 11.1428 17.5293 11.0744 17.3535C11.0452 17.2656 10.7619 17.0313 10.4397 16.8262C10.1272 16.6211 9.86351 16.4258 9.86351 16.3867C9.86351 16.2793 11.7873 14.9121 13.0666 14.1114C16.0842 12.2364 19.0725 11.0449 22.1682 10.4785C23.4866 10.2442 26.5334 10.2442 27.8811 10.4883C30.8694 11.0352 33.7112 12.1582 36.6995 13.9649C37.9104 14.6973 40.137 16.2696 40.137 16.3867C40.137 16.4258 39.8733 16.6211 39.5608 16.8262C39.2385 17.0313 38.9553 17.2656 38.926 17.3535C38.8577 17.5293 38.6721 19.1406 38.6721 19.6094C38.6721 19.8242 38.7502 20.0098 38.926 20.1856C39.1311 20.3906 39.2385 20.4199 39.5315 20.3711C40.0686 20.293 40.2053 20.0586 40.2834 19.0625L40.3518 18.2031L40.9377 17.8321L41.5237 17.4707L42.0705 17.9395C42.7248 18.4766 46.1916 21.8848 46.1916 21.9727C46.1916 22.0117 45.8889 22.0996 45.508 22.1875L44.8245 22.334L43.633 21.9629C42.2561 21.5332 42.0022 21.5137 41.6897 21.7676C41.5139 21.9043 41.4553 22.0508 41.4553 22.3633C41.4553 22.9004 41.6311 23.0371 42.7053 23.3301L43.5549 23.5645L43.3498 23.8672C43.2424 24.0332 43.0569 24.3555 42.9495 24.5801C42.7444 24.9805 42.7444 25.0098 42.9006 25.3418C43.0764 25.7227 43.428 25.8594 43.8381 25.7227C43.9944 25.6641 44.3069 25.3125 44.6877 24.7559C45.3323 23.8086 45.303 23.8379 46.6018 23.5449L47.4514 23.3594L47.9495 23.9942C48.594 24.834 48.6037 25.1563 48.0276 25.8985C47.4807 26.6016 46.5041 27.7051 45.5276 28.7305L44.717 29.5801L44.053 29.0918C43.2815 28.5352 42.9006 28.4766 42.5295 28.8574C42.0803 29.2969 42.2463 29.7559 43.0373 30.3223L43.5745 30.7129L43.008 31.2305C42.6858 31.5235 42.051 32.0801 41.592 32.4805L40.7424 33.2031L40.342 32.8321L39.9319 32.4707L40.0784 31.6895C40.303 30.5469 40.2834 30.2344 39.9807 29.9903C39.6487 29.7363 39.219 29.7266 38.9651 29.9805C38.7502 30.1953 38.7405 30.2246 38.4866 31.6895C38.262 32.9395 38.3108 33.1153 38.9553 33.7403C39.1702 33.9453 39.3557 34.1504 39.3557 34.1992C39.3557 34.2383 38.9455 34.5508 38.4573 34.8926C34.9709 37.3145 31.426 38.8672 27.8811 39.5117C26.6213 39.7363 23.4182 39.7461 22.1682 39.5313C21.2307 39.3653 20.8889 39.4238 20.7131 39.8047C20.5569 40.166 20.5764 40.3906 20.8303 40.6641C21.0061 40.8692 21.2112 40.9375 21.9729 41.0645C28.4866 42.1094 35.3713 39.6973 42.3342 33.9453C44.5998 32.0703 49.2678 27.1973 49.7756 26.1719C50.0198 25.6934 50.0198 24.3067 49.7756 23.8281C49.2678 22.8028 44.5998 17.9297 42.3342 16.0547C38.467 12.8614 34.4827 10.6153 30.7522 9.53127C28.2229 8.79885 25.4787 8.54494 22.9494 8.79885Z" />
<path d="M23.3985 12.1094C21.3477 12.373 19.17 13.2031 17.5977 14.3359C16.5626 15.0684 15.6446 15.8984 15.4688 16.2402C15.1759 16.7871 15.5274 17.3828 16.1427 17.3828C16.3477 17.3828 16.6309 17.1973 17.2364 16.6602C18.1934 15.8105 18.9356 15.293 19.9024 14.8047C24.8536 12.3145 30.7911 13.75 34.17 18.2617C35.1368 19.5605 35.8009 21.0352 36.2013 22.7734C36.4161 23.7598 36.4161 26.2402 36.2013 27.2266C35.6739 29.5215 34.7071 31.3379 33.1251 32.9492C28.1837 37.998 20.0782 37.4316 15.8302 31.7383C14.336 29.7363 13.6427 27.627 13.6329 25.0488C13.6329 23.0859 13.8673 21.9727 14.7559 19.9512C14.9415 19.5215 14.961 19.4141 14.8536 19.1602C14.6388 18.6523 14.0333 18.5059 13.6427 18.8672C13.3302 19.1602 12.7442 20.5469 12.4513 21.709C10.6055 28.9746 15.0587 36.1426 22.3927 37.7148C23.8087 38.0176 26.1915 38.0176 27.6075 37.7148C32.7149 36.6211 36.5333 32.8223 37.7052 27.6855C38.0177 26.2793 38.0177 23.7207 37.7052 22.3145C36.543 17.2363 32.8419 13.4961 27.8321 12.3438C26.6798 12.0801 24.5411 11.9629 23.3985 12.1094Z" />
<path d="M27.9295 18.0569C27.5291 18.1839 27.0213 18.4671 26.699 18.7503C26.406 19.0042 26.3767 19.0042 25.7322 18.9066C24.8142 18.7698 23.574 18.9456 22.6463 19.3265C19.5115 20.6351 18.0076 24.3167 19.326 27.3831C19.531 27.8421 19.531 27.8812 19.3748 28.262C18.9842 29.2288 19.2478 30.4691 19.9998 31.221C20.9764 32.1976 22.8514 32.2366 23.7303 31.2991C23.9256 31.0941 23.9939 31.0745 24.6482 31.1234C25.7517 31.2112 27.5193 30.7816 28.0564 30.303C28.3006 30.0784 28.281 29.4534 28.0174 29.1898C27.7732 28.9456 27.3826 28.9651 26.5232 29.2874C26.201 29.4144 25.6443 29.5316 25.2732 29.5609L24.6092 29.6194V29.0823C24.6092 27.4222 22.8123 26.1624 21.1131 26.6507C20.7225 26.7679 20.6541 26.6605 20.4881 25.6937C20.0291 23.0081 22.285 20.4105 25.0779 20.4105H25.5369V21.3577C25.5369 22.1878 25.576 22.3831 25.7908 22.8616C26.1033 23.5257 26.6795 24.1312 27.3142 24.4437C27.9002 24.7464 28.3103 24.8343 29.0428 24.8245L29.6189 24.8148L29.5603 25.3909C29.5213 25.7132 29.4041 26.221 29.2967 26.5335C29.1892 26.8362 29.1014 27.1976 29.1014 27.3245C29.1014 27.6468 29.5213 28.0276 29.8631 28.0276C30.3025 28.0276 30.5467 27.7542 30.8299 26.9534C31.035 26.3675 31.0935 26.0062 31.1131 25.1663L31.1424 24.1116L31.5037 23.7112C31.699 23.4964 31.9725 23.0667 32.1092 22.764C32.324 22.305 32.3728 22.0804 32.3631 21.3773C32.3631 20.6253 32.3338 20.4593 32.0506 19.8929C31.66 19.1116 30.9568 18.4476 30.2146 18.1741C29.658 17.9593 28.4471 17.9007 27.9295 18.0569ZM29.7947 19.7269C30.9568 20.3226 31.1717 21.8069 30.2244 22.7151C28.8572 24.0335 26.7381 22.8421 27.0896 20.9476C27.1678 20.5374 27.7439 19.8538 28.1736 19.6683C28.6131 19.473 29.3455 19.5023 29.7947 19.7269ZM22.4607 28.2718C22.8123 28.4573 23.0467 28.8773 23.0467 29.3362C23.0467 29.7562 22.6756 30.2151 22.2166 30.3714C21.5623 30.5862 20.781 29.971 20.781 29.2484C20.781 28.3987 21.6892 27.8714 22.4607 28.2718Z" />
<path d="M14.6875 41.5039C14.4141 41.6113 14.1602 41.9727 14.1602 42.2559C14.1602 42.6465 14.5703 42.9395 15.7227 43.3887C21.8945 45.8008 28.0664 45.8008 34.2773 43.3887C35.7812 42.8027 36.1328 42.3926 35.6445 41.7676C35.332 41.3672 35.0684 41.3672 34.0137 41.7871C27.8613 44.2188 22.2754 44.248 16.2695 41.8945C14.9219 41.3672 14.9902 41.377 14.6875 41.5039Z" />
</svg>
