<svg width="50" height="50" className='iconSVG' viewBox="0 0 50 50"  xmlns="http://www.w3.org/2000/svg">
<path d="M45.7713 5.56641C45.117 5.68359 44.3553 6.06445 43.9256 6.51367C43.2811 7.17773 42.0896 8.91602 42.0896 9.18945C42.0896 9.61914 42.4314 9.96094 42.8709 9.96094C43.2908 9.96094 43.3396 9.91211 44.4529 8.39844C45.1853 7.41211 45.6541 7.09961 46.4256 7.09961C47.2068 7.09961 47.8904 7.51953 48.2518 8.22266C48.5154 8.74023 48.5057 9.60938 48.2127 10.0781C48.0174 10.4004 41.3279 17.8711 41.24 17.8711C41.201 17.8711 39.3357 16.3965 39.0818 16.1621C38.9744 16.0645 39.2381 15.6445 40.4783 13.9062C41.9041 11.9141 42.0018 11.748 41.9529 11.4258C41.8748 10.918 41.3963 10.6348 40.9178 10.8203C40.7615 10.8789 40.0975 11.709 39.1014 13.0957C38.2322 14.2969 37.4803 15.3809 37.4119 15.498C37.2752 15.7715 37.2752 16.4258 37.4119 16.7285C37.5096 16.9434 37.3924 17.1289 35.8299 19.0527C34.9119 20.2051 34.1209 21.1816 34.0818 21.2207C34.033 21.2695 33.6619 21.0156 33.242 20.6641C32.3436 19.9121 31.035 19.2285 29.9314 18.9258C29.2967 18.75 28.8865 18.7109 27.7342 18.7207C26.074 18.7207 25.3025 18.8867 23.9744 19.541L23.1443 19.9414L22.1385 19.8145C20.7518 19.6289 18.076 19.6582 16.7283 19.8633C13.4568 20.3516 10.449 21.6211 7.71465 23.6719C6.49395 24.5801 0.468556 30.5273 0.195118 31.1035C-0.0392568 31.5918 -0.0685536 32.4707 0.14629 32.9785C0.312306 33.3789 4.84356 38.0078 5.30254 38.2422C5.86895 38.5449 6.44512 38.1738 6.44512 37.5195C6.44512 37.2266 6.29863 37.041 5.20488 35.9277L3.97442 34.668L4.41387 34.2578C4.64824 34.0234 5.0291 33.6914 5.25371 33.5156C5.80059 33.0859 6.05449 32.5684 6.05449 31.9141C6.04473 31.0156 5.70293 30.4785 4.78496 29.9609C4.54082 29.8242 4.26738 29.6191 4.16973 29.5117C4.00371 29.3262 4.04277 29.2773 5.84942 27.5195C8.28106 25.1367 9.61895 24.1113 11.5135 23.1543C14.2088 21.7871 17.6268 21.0645 20.4783 21.2402L21.6014 21.3086L21.3182 21.6211C21.1619 21.7871 20.9178 22.0703 20.7908 22.2363L20.5564 22.5586L19.3357 22.5977C17.8416 22.6562 16.7869 22.9004 15.5662 23.4766C14.4725 23.9941 13.9549 24.3457 13.115 25.127C9.68731 28.3398 9.10137 33.4766 11.7283 37.3926C13.115 39.4824 15.2439 40.8789 17.8221 41.416C18.574 41.5723 20.5857 41.5723 21.3377 41.416C24.3162 40.8008 26.7283 38.9941 28.0564 36.3867C28.4373 35.6445 28.535 35.5469 28.9158 35.5469C29.7947 35.5469 32.1189 34.6191 32.5096 34.1211C32.7635 33.7891 32.7732 33.3984 32.5193 33.1348C32.158 32.7441 31.9725 32.7637 30.8689 33.291C28.6424 34.3555 26.6209 34.3359 24.4627 33.2227C23.4275 32.6953 22.1287 31.3574 21.6014 30.2734C21.0252 29.0918 20.8592 28.3789 20.8592 27.0996C20.8592 25.166 21.4646 23.75 22.8904 22.3047C23.6521 21.543 23.9158 21.3477 24.7068 20.9668C26.7479 19.9805 28.8377 19.9805 30.8201 20.957C31.5135 21.2988 32.7732 22.2559 32.8709 22.5098C32.91 22.5879 32.451 23.2324 31.7967 24.043C31.1717 24.8145 30.6346 25.5371 30.6053 25.6543C30.5174 25.9863 30.6346 26.3477 30.8885 26.5039C31.3768 26.8359 33.2127 26.9336 34.365 26.6992L34.6971 26.6309L34.6385 27.5488C34.5701 28.8477 34.0818 30.2148 33.3787 31.1426C32.9686 31.6797 33.3201 32.4219 33.9842 32.4219C34.2967 32.4219 34.4139 32.3633 34.6678 32.0508C34.8338 31.8555 35.1658 31.3086 35.3904 30.8398L35.8104 29.9902L36.7576 30.9473C37.2752 31.4746 37.6951 31.9922 37.6951 32.0898C37.6951 32.2852 32.9295 37.1289 31.5135 38.3594C29.0623 40.5078 26.1814 41.9629 23.1932 42.5684C18.1541 43.6035 13.0564 42.4512 8.84746 39.3359C8.27129 38.9062 7.99785 38.7695 7.75371 38.7695C7.29473 38.7695 7.03106 39.0527 7.03106 39.5508C7.03106 39.9023 7.07988 39.9707 7.53887 40.3418C10.0877 42.373 13.4959 43.8184 16.8553 44.2969C18.242 44.4922 20.9178 44.4922 22.3045 44.2969C25.6736 43.8086 28.6229 42.5879 31.4451 40.4883C32.5682 39.6484 38.574 33.75 38.9451 33.1055C39.2674 32.5586 39.3064 31.6895 39.0232 31.1523C38.9256 30.9668 38.2615 30.2148 37.5486 29.4922L36.24 28.1738L36.2107 27.1289L36.1814 26.0938L36.6697 25.8008C36.9432 25.6348 37.3826 25.3223 37.6658 25.1074C38.3104 24.5898 39.8143 22.7148 39.9412 22.2852C39.99 22.0996 40.0096 21.5918 39.9803 21.1621L39.9217 20.3613L40.3025 19.9219C40.6736 19.4922 40.6834 19.4824 41.2205 19.5117C41.699 19.541 41.8162 19.502 42.0799 19.2773C42.2459 19.1406 43.9353 17.3145 45.8299 15.2148C48.076 12.7246 49.3846 11.2109 49.6092 10.8105C49.9021 10.2832 49.951 10.1074 49.9803 9.36523C50.0291 8.34961 49.8631 7.69531 49.3553 7.01172C48.5545 5.89844 47.1482 5.3418 45.7713 5.56641ZM39.0916 18.2129C39.2381 18.3398 39.3553 18.4766 39.3553 18.5059C39.3553 18.5352 39.1502 18.8184 38.8963 19.1504L38.4275 19.7461L38.408 20.8105L38.3982 21.875L37.7049 22.7344C36.9139 23.7109 36.2107 24.2969 35.3221 24.7168C34.4822 25.1074 32.8318 25.4492 32.9295 25.2148C32.9783 25.0879 38.7205 17.9785 38.7693 17.9785C38.7986 17.9785 38.9354 18.0859 39.0916 18.2129ZM19.6189 24.6582C19.4334 25.2246 19.2381 26.4355 19.2381 27.041V27.4023L18.6619 27.5098C15.0779 28.1836 13.701 32.7539 16.2986 35.3613C17.1873 36.25 18.3494 36.7188 19.6287 36.7188C20.9764 36.709 21.9139 36.3086 22.9197 35.293L23.6131 34.5898L24.0916 34.8145C24.7068 35.1074 25.6639 35.4199 26.2205 35.498C26.4646 35.5371 26.66 35.6055 26.66 35.6445C26.66 35.8691 25.6053 37.2559 25.0096 37.8223C23.7498 39.0039 22.1873 39.7266 20.3904 39.9609C18.2811 40.2246 15.9666 39.4531 14.2576 37.9199C12.4021 36.25 11.4061 33.623 11.7088 31.2109C12.0994 28.1348 14.1209 25.6055 16.992 24.5898C17.6561 24.3555 18.74 24.1406 19.3455 24.1309L19.7947 24.1211L19.6189 24.6582ZM19.6678 29.7363C20.0877 31.0254 20.742 32.1094 21.699 33.0762L22.3045 33.6914L21.7576 34.2188C20.4783 35.4688 18.6619 35.4688 17.4217 34.2383C15.7908 32.6074 16.4354 29.9414 18.6424 29.1406C19.2967 28.8965 19.4236 28.9746 19.6678 29.7363ZM4.17949 31.4648C4.66777 31.7285 4.60918 32.041 3.97442 32.5C3.69121 32.7148 3.32012 33.0371 3.1541 33.2324L2.85137 33.5742L2.20684 32.9199C1.78692 32.4902 1.56231 32.1973 1.56231 32.041C1.56231 31.8945 1.78692 31.582 2.20684 31.1523L2.85137 30.4785L3.35918 30.8887C3.64238 31.1133 4.01348 31.377 4.17949 31.4648Z" />
<path d="M45.8887 8.58396C45.5762 8.89646 45.5078 9.02341 45.5078 9.35544C45.5078 9.66794 45.5664 9.79489 45.7617 9.95114C46.1133 10.2246 46.4062 10.2051 46.7773 9.90232C47.3828 9.38474 47.4902 8.81833 47.0703 8.39841C46.748 8.07614 46.3281 8.1445 45.8887 8.58396Z" />
</svg>
