<svg className='iconSVG' width="50" height="50" viewBox="0 0 50 50"  xmlns="http://www.w3.org/2000/svg">
<path d="M22.8027 11.3281C15.8594 12.0312 9.49219 15.0195 3.91602 20.1855C2.76367 21.2598 1.28906 22.8711 0.517578 23.8867C0.078125 24.4824 0 24.6387 0 25.0098C0 25.3808 0.078125 25.5371 0.566406 26.1914C2.12891 28.2812 4.29688 30.4101 6.70898 32.2168C13.7891 37.5293 22.1191 39.7168 30.1074 38.3691C34.8926 37.5683 39.6094 35.4199 43.6523 32.2265C45.1855 31.0254 47.9297 28.2129 49.0527 26.709C50.4102 24.9023 50.4004 24.873 48.3496 22.4414C45.3809 18.9062 42.0117 16.2305 38.0859 14.2676C35.0684 12.7637 32.373 11.9238 29.1016 11.4648C27.8613 11.289 24.0234 11.2109 22.8027 11.3281ZM27.832 13.3789C30.0098 13.6035 32.334 14.1406 34.2773 14.8437C35.7129 15.3711 38.0566 16.5039 39.3066 17.2949C40.293 17.9101 42.4902 19.5215 43.2129 20.166L43.6035 20.5078L42.6758 20.0879C33.5742 15.9082 23.8867 15.039 14.3555 17.539C12.1973 18.1055 10.5273 18.7012 7.56836 19.9707C7.05078 20.1855 7.17773 20.0683 8.47656 19.1113C12.7734 15.9375 17.4414 14.0527 22.5586 13.4277C23.8086 13.2715 26.5723 13.2519 27.832 13.3789ZM28.4473 18.3496C29.5605 18.5351 31.123 20.5176 31.6113 22.3633C31.8359 23.2129 31.8359 24.8437 31.6113 25.6836C30.9668 28.0957 29.082 29.9805 26.6602 30.6348C25.8105 30.8594 24.1895 30.8594 23.3398 30.6348C20.918 29.9805 19.0332 28.0957 18.3887 25.6836C18.1641 24.8437 18.1641 23.2129 18.3887 22.3633C18.7402 21.0351 19.6875 19.4922 20.625 18.7207C21.0547 18.3594 21.0742 18.3594 22.3242 18.2715C23.6719 18.1738 27.6758 18.2226 28.4473 18.3496ZM17.373 19.4433C16.5234 20.8887 16.1719 22.2363 16.1816 24.0723C16.1816 25.7324 16.3672 26.543 17.0801 27.9785C17.9395 29.7168 19.3066 31.084 21.0449 31.9433C22.5 32.6562 23.2812 32.8418 25 32.8418C26.7188 32.8418 27.5 32.6562 28.9551 31.9433C31.2109 30.8301 32.9492 28.6914 33.6133 26.2207C33.9062 25.0976 33.9062 22.9394 33.6035 21.8262C33.3887 21.0254 32.7832 19.6387 32.4121 19.1308L32.207 18.8379L32.4414 18.8867C32.5586 18.916 33.0859 19.0332 33.5938 19.1406C37.9883 20.0976 43.0469 22.2363 46.7676 24.7363L47.5586 25.2637L46.7871 26.1816C46.3672 26.6894 45.918 27.1973 45.7812 27.3242L45.5371 27.539L44.8438 27.373L44.1406 27.207L43.6914 25.8594C43.1836 24.3262 43.0273 24.1211 42.3145 24.1211C41.8262 24.1211 41.4648 24.4043 41.3477 24.8633C41.2891 25.0879 41.5234 25.9961 41.8652 26.9238C41.9043 27.0215 41.6895 27.0508 40.9766 27.0508C40.293 27.0508 39.9707 27.0898 39.8047 27.1973C39.2871 27.539 39.2383 28.3789 39.707 28.8183C39.9512 29.043 40.0195 29.0527 41.8457 29.1015C42.8809 29.1308 43.7598 29.1797 43.7988 29.209C43.8965 29.3164 42.0312 30.8594 40.6445 31.8262L40.3223 32.0508L39.209 31.2109C38.6035 30.7519 37.9883 30.3515 37.8516 30.3125C37.2168 30.1562 36.6211 30.664 36.6211 31.3672C36.6211 31.8066 36.7676 31.9922 37.6367 32.6172C38.0371 32.9101 38.3789 33.1836 38.3789 33.2226C38.3789 33.3301 36.1328 34.4336 34.9316 34.9023C30.2539 36.748 25.0586 37.1875 20.0684 36.1816C19.0137 35.9668 17.0898 35.4297 17.0898 35.3515C17.0898 35.3125 17.2656 35.2051 17.4902 35.1074C18.3008 34.7363 18.5156 33.9844 17.9785 33.3789C17.5684 32.9199 17.0996 32.9492 16.0547 33.4765L15.2539 33.8769L15.1855 32.959C15.1074 31.914 14.9609 31.6308 14.4043 31.4453C14.1113 31.3476 14.0039 31.3574 13.7012 31.5137C13.1641 31.7773 13.0664 32.0312 13.1348 32.998L13.1934 33.8086L12.2363 33.3008C10.4785 32.3535 6.64062 29.6875 6.64062 29.4043C6.64062 29.2383 7.73438 29.1015 9.14062 29.1015C10.918 29.1015 11.25 29.0137 11.4844 28.457C11.6699 28.0176 11.5918 27.6367 11.2598 27.3047C11.0254 27.0703 10.9473 27.0508 10.0488 27.0508C9.51172 27.0508 9.08203 27.0215 9.08203 26.9922C9.08203 26.9531 9.20898 26.5234 9.36523 26.0351C9.6875 25.039 9.66797 24.7363 9.30664 24.3652C9.11133 24.1699 8.95508 24.1211 8.59375 24.1211C7.94922 24.1211 7.77344 24.3555 7.23633 25.8984L6.78711 27.1875L5.73242 27.4512L4.67773 27.7148L3.56445 26.4844L2.45117 25.2539L3.23242 24.7265C6.03516 22.8613 9.89258 21.0351 13.2812 19.9902C14.9316 19.4824 17.5488 18.8281 17.6562 18.9062C17.6758 18.916 17.5488 19.1601 17.373 19.4433Z" fill="white"/>
<path d="M24.336 20.1172C23.1446 20.293 21.9337 21.2109 21.4258 22.3144C20.088 25.2246 22.4317 28.3789 25.6055 27.9297C27.7344 27.6269 29.2579 25.5566 28.9161 23.4277C28.5548 21.2109 26.6016 19.7949 24.336 20.1172ZM25.4688 22.1875C26.084 22.3437 26.6895 22.9492 26.836 23.5644C27.1876 24.9316 25.9083 26.2109 24.5411 25.8594C23.5548 25.6152 22.9102 24.5508 23.1641 23.5644C23.3497 22.8223 24.1016 22.1875 24.9317 22.0801C24.9805 22.0703 25.2149 22.1191 25.4688 22.1875Z" fill="white"/>
</svg>
